<?xml version="1.0" standalone="no"?>
<!DOCTYPE svg PUBLIC "-//W3C//DTD SVG 20010904//EN"
 "http://www.w3.org/TR/2001/REC-SVG-20010904/DTD/svg10.dtd">
<svg version="1.0" xmlns="http://www.w3.org/2000/svg"
 width="1920.000000pt" height="1920.000000pt" viewBox="0 0 1920.000000 1920.000000"
 preserveAspectRatio="xMidYMid meet">

<g transform="translate(0.000000,1920.000000) scale(0.100000,-0.100000)"
fill="#000000" stroke="none">
<path d="M11333 13018 c-65 -139 -532 -869 -688 -1073 -207 -273 -413 -498
-538 -589 -37 -28 -67 -55 -67 -61 0 -6 6 -35 14 -65 16 -62 40 -201 62 -358
9 -59 18 -222 21 -362 6 -299 -8 -449 -61 -655 -19 -72 -32 -132 -31 -134 4
-3 65 37 75 49 3 4 83 68 178 144 307 243 553 474 635 595 l36 54 -4 -54 c-9
-104 -26 -449 -26 -506 0 -32 -6 -107 -14 -168 -7 -60 -12 -111 -10 -113 3 -3
162 282 209 376 14 28 24 52 21 52 -3 0 4 18 15 41 54 106 217 493 224 534 2
11 26 84 54 160 54 152 119 356 151 475 32 119 123 541 118 547 -3 2 -24 -22
-46 -54 -56 -78 -172 -207 -248 -273 -58 -51 -172 -124 -181 -115 -2 2 14 68
36 147 58 205 108 441 116 553 3 28 10 113 17 190 14 162 7 414 -15 553 -22
139 -31 157 -53 110z"/>
<path d="M12261 11198 c-5 -13 -25 -62 -45 -110 -20 -49 -56 -141 -80 -205
-24 -65 -59 -152 -78 -193 -20 -41 -70 -154 -113 -250 -69 -155 -286 -595
-327 -660 -8 -14 -60 -101 -114 -195 -248 -431 -536 -802 -786 -1013 -43 -36
-78 -70 -78 -75 0 -15 337 -1 450 18 52 9 112 18 133 21 21 3 49 9 62 14 l24
9 -22 -37 c-11 -20 -24 -39 -27 -42 -4 -3 -24 -34 -45 -70 -62 -106 -320 -490
-380 -565 -30 -38 -82 -105 -115 -148 -33 -43 -83 -104 -112 -135 -153 -164
-243 -255 -330 -337 -94 -87 -98 -92 -98 -133 0 -56 15 -61 93 -29 34 14 105
42 157 63 52 20 176 75 275 121 99 47 188 86 197 88 34 7 667 335 753 390 28
18 91 54 140 80 50 27 160 91 245 143 85 52 164 100 175 106 40 22 483 321
612 413 73 52 140 104 148 116 19 27 19 94 0 130 -8 16 -30 88 -49 161 -34
134 -67 213 -113 274 l-25 33 -116 -113 c-130 -126 -294 -265 -452 -383 -58
-43 -107 -82 -110 -86 -6 -8 -218 -145 -275 -178 -36 -21 -37 -21 -13 -2 14
12 74 59 131 104 134 105 319 270 476 422 151 147 366 387 392 436 33 66 43
170 43 444 0 189 -5 295 -18 390 -10 72 -20 150 -23 175 -6 54 -50 197 -63
205 -5 3 -14 -14 -20 -37 -22 -82 -143 -433 -175 -508 -48 -111 -192 -359
-209 -360 -5 0 -6 44 -3 103 15 244 19 583 8 777 -7 113 -14 246 -17 295 -6
111 -54 355 -70 355 -2 0 -8 -10 -13 -22z"/>
<path d="M9527 10502 c-33 -116 -80 -221 -126 -282 -51 -66 -205 -299 -228
-345 -12 -22 -59 -116 -105 -210 -227 -462 -452 -707 -1183 -1285 -239 -189
-318 -254 -350 -286 -11 -11 -45 -39 -75 -61 -30 -22 -68 -53 -85 -70 -16 -16
-86 -76 -155 -133 -542 -451 -916 -795 -961 -882 -49 -96 -63 -313 -35 -549
19 -154 38 -190 121 -225 32 -13 79 -16 284 -15 398 0 828 49 1316 150 77 16
190 39 250 51 151 30 507 118 700 174 88 25 194 55 235 67 41 12 129 37 195
57 l120 36 120 121 c67 66 140 146 164 178 24 32 49 61 55 65 36 22 281 353
435 587 62 94 121 181 132 195 25 33 51 81 47 85 -10 10 -355 -106 -528 -178
-95 -39 -419 -209 -540 -282 -152 -92 -258 -141 -446 -204 -211 -71 -393 -110
-559 -118 l-120 -6 29 39 c17 21 84 109 151 194 249 319 295 379 419 550 70
96 136 186 146 200 69 94 252 377 281 435 9 17 55 100 104 185 49 84 116 219
150 300 34 80 72 167 84 194 38 83 119 335 141 441 71 336 85 493 55 586 -38
115 -125 261 -192 321 -19 17 -20 15 -46 -80z"/>
</g>
</svg>
